<svg width="128" height="128" viewBox="0 0 100 100" fill="#ffffff" xmlns="http://www.w3.org/2000/svg"><path fill-rule="evenodd" d="M38.06 8.10 C38.04 8.13 37.73 8.19 37.37 8.23 C31.46 9.01 25.40 13.88 23.09 19.69 C22.91 20.15 22.56 21.25 22.30 22.11 L21.85 23.68 L21.78 27.58 C21.71 31.41 21.71 31.49 22.04 33.08 C23.07 38.08 25.67 42.52 28.76 44.53 C30.71 45.81 35.47 47.70 37.88 48.16 C39.41 48.46 72.79 48.58 75.31 48.30 C78.22 47.98 80.16 47.37 81.40 46.38 C84.04 44.27 86.39 41.59 87.40 39.51 C90.62 32.92 89.17 25.59 83.58 19.97 C81.95 18.34 81.87 18.29 80.32 17.52 C77.48 16.14 75.61 15.71 72.15 15.64 C66.49 15.53 61.80 17.49 58.48 21.35 L57.75 22.20 L57.34 20.97 C55.20 14.29 48.79 9.03 41.77 8.18 C40.73 8.05 38.18 8.00 38.06 8.10 ZM40.12 19.41 C44.47 19.97 47.73 22.57 48.50 26.07 C49.64 31.32 46.61 36.24 41.47 37.53 C37.40 38.55 33.08 36.09 31.90 32.06 C30.75 28.15 31.90 23.95 34.85 21.20 C36.63 19.54 37.84 19.12 40.12 19.41 ZM73.63 25.39 C76.63 26.45 78.90 29.53 78.94 32.62 C78.98 35.13 77.42 37.57 75.06 38.71 C72.54 39.93 70.59 39.94 68.21 38.77 C63.04 36.24 62.96 28.61 68.06 25.98 C69.80 25.09 72.07 24.86 73.63 25.39 Z M15.73 50.86 C12.82 51.66 10.20 54.29 9.56 57.06 C9.38 57.84 9.38 83.81 9.56 84.94 C10.04 87.88 12.63 90.76 15.61 91.66 C16.75 92.00 19.80 91.87 24.23 91.32 C25.57 91.16 27.06 90.99 27.55 90.94 C30.17 90.70 34.13 88.91 36.06 87.07 C36.45 86.69 36.90 86.30 37.05 86.19 C37.19 86.09 37.81 85.47 38.39 84.79 C40.10 82.88 40.87 81.00 41.37 77.49 L41.58 76.02 L43.26 75.97 L44.93 75.92 L45.00 78.27 C45.22 84.38 47.38 87.67 52.01 88.96 C53.45 89.36 75.06 89.36 76.73 88.96 C81.38 87.84 84.78 84.23 85.61 79.51 C85.94 77.67 85.88 63.50 85.54 62.03 C84.60 58.00 82.17 55.03 78.70 53.66 C76.40 52.76 76.78 52.78 64.36 52.78 L53.20 52.78 L52.11 53.09 C46.65 54.63 45.20 56.75 45.00 63.41 L44.93 66.00 L43.26 65.97 L41.58 65.93 L41.38 64.93 C40.73 61.86 39.40 59.18 37.64 57.34 C33.77 53.32 30.95 52.04 24.55 51.37 C24.16 51.33 23.77 51.28 23.67 51.24 C22.52 50.86 16.72 50.59 15.73 50.86 ZM22.98 59.74 C25.98 60.13 26.82 60.35 28.37 61.15 C31.99 63.00 33.49 66.08 33.47 71.50 C33.45 74.86 33.21 76.03 32.11 77.86 C30.76 80.12 27.67 82.05 25.07 82.26 C24.61 82.30 23.40 82.43 22.38 82.54 C19.85 82.81 18.85 82.49 18.14 81.15 L17.85 80.60 L17.85 71.07 L17.85 61.55 L18.23 61.00 C19.15 59.71 20.33 59.39 22.98 59.74 ZM69.42 62.94 C76.37 65.07 78.10 74.13 72.35 78.45 C70.58 79.79 69.76 80.03 67.07 80.03 C63.02 80.03 61.06 79.20 59.31 76.76 C57.66 74.45 57.32 70.73 58.54 68.31 C60.74 63.97 65.36 61.69 69.42 62.94 Z" /></svg>