<svg width="128" height="128" viewBox="0 0 100 100" fill="#ffffff" xmlns="http://www.w3.org/2000/svg"><path fill-rule="evenodd" d="M65.20 22.77 C60.26 23.60 56.56 26.24 51.39 32.66 L50.28 34.05 L49.71 33.25 C49.00 32.28 47.57 30.61 47.10 30.18 C46.92 30.01 46.28 29.41 45.69 28.86 C41.31 24.70 37.05 22.81 32.23 22.86 C24.89 22.92 19.26 26.77 14.17 35.15 C11.12 40.16 9.67 44.38 8.54 51.48 C8.04 54.54 8.00 55.16 8.05 59.71 C8.09 64.63 8.22 65.66 9.10 68.20 C11.05 73.81 16.71 77.89 22.56 77.89 C28.87 77.89 33.31 74.88 38.62 67.04 C40.48 64.28 41.35 62.77 46.71 53.14 C48.11 50.64 49.30 48.59 49.35 48.56 C49.42 48.55 50.62 50.54 52.02 52.98 C61.39 69.30 64.54 73.45 69.64 76.20 C71.59 77.25 74.31 77.89 76.82 77.89 C83.38 77.89 89.12 73.04 90.74 66.13 C92.00 60.77 91.40 50.86 89.41 44.16 C87.18 36.65 82.48 29.23 77.88 25.92 C74.43 23.45 69.09 22.11 65.20 22.77 ZM68.27 30.49 C73.46 31.23 76.85 34.60 79.68 41.80 C83.52 51.57 84.10 63.32 80.99 67.49 C79.42 69.58 76.31 69.61 73.41 67.57 C71.28 66.07 70.23 64.67 63.62 54.39 C60.84 50.09 58.23 46.04 57.81 45.40 C57.39 44.74 56.45 43.29 55.71 42.16 L54.37 40.09 L55.13 38.95 C58.82 33.40 61.92 30.96 65.98 30.43 C66.41 30.38 66.79 30.32 66.83 30.31 C66.87 30.31 67.51 30.39 68.27 30.49 ZM34.67 32.06 C38.16 33.17 41.61 36.22 44.83 41.02 L45.22 41.61 L41.61 47.06 C39.63 50.05 37.68 53.02 37.26 53.66 C30.97 63.48 29.32 65.74 27.23 67.35 C23.71 70.06 19.62 69.65 18.04 66.45 C16.75 63.85 16.38 57.99 17.23 53.37 C17.26 53.24 17.31 52.89 17.35 52.59 C17.40 52.30 17.61 51.27 17.83 50.30 C20.29 39.44 24.51 32.93 29.90 31.74 C30.94 31.50 33.45 31.67 34.67 32.06 Z" /></svg>